<svg width="203" height="816" viewBox="0 0 203 816" fill="none" xmlns="http://www.w3.org/2000/svg">
  <path
    d="M187.204 771.022C187.204 782.19 185.067 791.063 180.794 797.642C176.521 804.22 170.34 808.963 162.251 811.869C154.162 814.623 144.547 816 133.406 816V791.446C138.9 791.446 144.318 790.987 149.66 790.069C154.849 789.151 159.198 787.239 162.709 784.332C166.066 781.272 167.745 776.682 167.745 770.563C167.745 763.832 165.837 759.012 162.022 756.106C158.054 753.199 152.788 751.363 146.226 750.598C139.511 749.833 131.956 749.451 123.562 749.451C115.168 749.451 108.071 749.91 102.272 750.828C96.3195 751.746 91.8172 753.658 88.7648 756.565C85.5598 759.471 83.9573 764.061 83.9573 770.333C83.9573 775.382 85.5598 779.666 88.7648 783.184C91.8172 786.703 95.3274 789.304 99.2955 790.987V811.869H-0.0593128V731.781H24.436V789.61L75.7159 791.216C72.5109 788.156 69.9927 784.408 68.1613 779.972C66.3299 775.382 65.4142 770.181 65.4142 764.367C65.4142 754.27 67.7797 746.391 72.5109 740.731C77.2421 734.917 83.7284 730.863 91.9698 728.568C100.211 726.12 109.674 724.896 120.357 724.896C129.819 724.896 138.671 725.585 146.913 726.962C155.001 728.339 162.098 730.786 168.203 734.305C174.155 737.671 178.81 742.337 182.168 748.303C185.525 754.27 187.204 761.843 187.204 771.022Z"
    fill="#750107"
  />
  <path
    d="M203 660.967H187.204C186.899 676.724 181.786 688.428 171.866 696.077C161.946 703.726 149.126 707.933 133.406 708.698L127.225 685.75C133.787 685.291 140.121 684.297 146.226 682.767C152.331 681.084 157.367 678.407 161.335 674.735C165.151 671.064 167.058 665.939 167.058 659.36C167.058 652.629 165.227 647.58 161.564 644.215C157.749 640.696 152.331 638.937 145.31 638.937C136.916 638.937 130.201 640.849 125.164 644.674C119.975 648.498 114.786 653.317 109.597 659.131L82.1259 690.34C78.4631 694.318 74.6476 697.683 70.6795 700.437C66.7114 703.038 62.3618 705.027 57.6306 706.404C52.7468 707.628 47.2525 708.239 41.1478 708.239C27.8699 708.239 17.5682 704.491 10.2425 696.995C2.76414 689.499 -1.20394 679.325 -1.6618 666.474H-17V658.442H-1.6618C-1.20394 652.017 0.169626 646.433 2.45891 641.69C4.59557 636.795 7.64794 632.741 11.616 629.528C15.5841 626.162 20.4679 623.561 26.2674 621.726C31.9143 619.737 38.5532 618.436 46.1842 617.824L52.1363 639.854C46.0316 640.313 40.3847 641.231 35.1956 642.608C29.854 643.985 25.5807 646.433 22.3757 649.952C19.1707 653.317 17.7971 658.213 18.255 664.638C18.7128 671.064 20.5442 676.112 23.7492 679.784C26.9542 683.303 31.9143 685.062 38.6296 685.062C44.2765 685.062 48.9313 684.144 52.5942 682.308C56.1044 680.319 59.8436 677.183 63.8117 672.9L91.2831 641.461C95.4038 636.871 100.059 632.588 105.248 628.61C110.284 624.479 115.931 621.19 122.188 618.742C128.446 616.142 135.466 614.841 143.25 614.841C151.644 614.841 159.046 616.448 165.456 619.66C171.713 622.873 176.673 627.386 180.336 633.2C183.999 638.86 186.212 645.515 186.975 653.164H203V660.967Z"
    fill="#750107"
  />
  <path
    d="M185.373 540.093H53.052V517.375H65.6431C60.6067 512.938 56.8675 508.043 54.4256 502.688C51.9837 497.334 50.7628 491.826 50.7628 486.166C50.7628 481.27 51.9837 476.91 54.4256 473.085C56.8675 469.108 61.2171 466.277 67.4745 464.595C61.675 459.852 57.478 454.727 54.8835 449.219C52.1363 443.559 50.7628 437.669 50.7628 431.549C50.7628 427.266 51.8311 423.365 53.9678 419.846C55.9518 416.327 59.2331 413.497 63.8117 411.355C68.2376 409.213 74.1134 408.143 81.4391 408.143H185.373V430.632H83.0416C76.6316 430.632 72.3583 431.702 70.2216 433.844C67.9324 435.833 66.7877 438.587 66.7877 442.106C66.7877 445.471 67.7798 448.99 69.7638 452.662C71.5952 456.333 74.1897 459.699 77.5474 462.759C78.1578 462.759 78.7683 462.759 79.3788 462.759C79.9893 462.759 80.676 462.759 81.4391 462.759H185.373V485.248H83.0416C76.6316 485.248 72.3583 486.319 70.2216 488.46C67.9324 490.449 66.7877 493.203 66.7877 496.722C66.7877 500.087 67.7798 503.606 69.7638 507.278C71.5952 510.797 74.1897 514.162 77.5474 517.375H185.373V540.093Z"
    fill="#750107"
  />
  <path
    d="M185.373 382.512H53.052V357.958H185.373V382.512ZM33.3642 382.512H7.72425V357.958H33.3642V382.512Z"
    fill="#750107"
  />
  <path d="M185.373 329.384H-0.0593128V304.83H185.373V329.384Z" fill="#750107" />
  <path d="M185.373 276.945H-0.0593128V252.39H185.373V276.945Z" fill="#750107" />
  <path
    d="M185.373 225.193H53.052V200.639H185.373V225.193ZM33.3642 225.193H7.72425V200.639H33.3642V225.193Z"
    fill="#750107"
  />
  <path
    d="M187.204 137.873C187.204 147.664 185.22 155.39 181.252 161.05C177.284 166.711 171.637 170.765 164.311 173.212C156.985 175.507 148.362 176.655 138.442 176.655H99.9823C90.0621 176.655 81.4391 175.507 74.1134 173.212C66.7877 170.765 61.1408 166.711 57.1728 161.05C53.2047 155.39 51.2206 147.664 51.2206 137.873C51.2206 128.081 53.2047 120.432 57.1728 114.925C61.1408 109.264 66.7877 105.286 74.1134 102.992C81.4391 100.544 90.0621 99.3199 99.9823 99.3199H138.442C148.362 99.3199 156.985 100.544 164.311 102.992C171.637 105.286 177.284 109.264 181.252 114.925C185.22 120.432 187.204 128.081 187.204 137.873ZM169.119 137.873C169.119 133.13 167.745 129.841 164.998 128.005C162.251 126.016 158.664 124.869 154.238 124.563C149.66 124.104 144.929 123.874 140.045 123.874H98.6087C93.5723 123.874 88.8411 124.104 84.4152 124.563C79.9893 124.869 76.4027 126.016 73.6556 128.005C70.7558 129.841 69.3059 133.13 69.3059 137.873C69.3059 142.615 70.7558 145.981 73.6556 147.97C76.4027 149.958 79.9893 151.182 84.4152 151.641C88.8411 151.947 93.5723 152.1 98.6087 152.1H140.045C144.929 152.1 149.66 151.947 154.238 151.641C158.664 151.182 162.251 149.958 164.998 147.97C167.745 145.981 169.119 142.615 169.119 137.873Z"
    fill="#750107"
  />
  <path
    d="M185.373 76.8757H53.052V52.3214H66.1009C61.9802 47.8848 58.47 42.9892 55.5702 37.6347C52.6705 32.2802 51.2206 26.3901 51.2206 19.9647C51.2206 14.6102 52.5942 10.556 55.3413 7.80231C58.0885 4.89557 61.5224 2.90668 65.6431 1.83575C69.7638 0.611877 73.9608 0 78.2341 0H185.373V24.5543H85.3309C80.5997 24.5543 76.9369 25.2427 74.3424 26.6196C71.7478 27.9965 70.4506 30.8268 70.4506 35.1104C70.4506 37.8641 71.29 40.7709 72.9688 43.8306C74.495 46.7374 76.4027 49.5676 78.692 52.3214H185.373V76.8757Z"
    fill="#750107"
  />
</svg>
