<?xml version="1.0" encoding="UTF-8"?><svg
  id="GambleAware_Logo"
  xmlns="http://www.w3.org/2000/svg"
  viewBox="0 0 794.01 104.98"
>
  <defs>
    <style>
      .cls-1 {
        fill: #ef681c;
      }
    </style>
  </defs>
  <path
    fill="#fff"
    d="m0,54.52C0,18.27,15.81,0,40.75,0c17.26,0,30.31,8.41,33.93,27.41l.58,3.05-14.79,3.19-.58-2.75c-2.76-12.76-9.86-17.69-19.43-17.69-13.49,0-24.22,11.75-24.22,40.31,0,26.97,9.72,38.28,23.35,38.28,9.72,0,21.03-5.07,21.03-22.91v-3.04h-21.32v-12.62h36.11v50.03h-12.91l-.87-12.33c-4.79,10-14.21,14.07-25.23,14.07C14.36,104.98,0,87.44,0,54.52Z"
  />
  <path
    fill="#fff"
    d="m131.08,96.28c-4.5,4.78-10.44,8.56-20.01,8.7-13.63,0-22.48-9.14-22.48-20.88,0-12.76,10.59-19,19.87-21.61l22.48-6.38v-2.61c0-8.12-5.08-12.18-13.05-12.18-7.4,0-13.34,4.64-15.95,9.86l-.44.87-11.46-6.09.73-1.45c3.19-6.53,12.04-15.52,28.42-15.52s26.83,8.27,26.83,23.2v38.14c0,3.62.15,8.41.87,11.6l.29,1.31h-15.08l-.15-.73c-.44-2.03-.73-4.06-.87-6.23Zm-16.1-2.76c6.67,0,12.62-3.92,15.95-8.12v-18.27l-15.66,4.79c-5.94,1.88-11.17,4.93-11.17,11.17s4.21,10.44,10.88,10.44Z"
  />
  <path
    fill="#fff"
    d="m233.59,42.05c-5.94,0-12.18,4.06-15.66,7.54v53.65h-15.08v-50.03c0-7.4-3.77-11.17-11.02-11.17-5.94,0-12.18,4.06-15.66,7.54v53.65h-15.08V30.74h14.36v7.98c5.51-5.8,13.34-9.72,21.46-9.72,10.15,0,16.24,4.64,19.14,11.02,5.51-6.53,13.92-11.02,22.62-11.02,14.94,0,21.03,10.01,21.03,20.88v53.36h-15.08v-50.03c0-7.4-3.77-11.17-11.02-11.17Z"
  />
  <path
    fill="#fff"
    d="m290.58,96.57l-1.45,6.67h-12.76V1.74h15.08v34.95c4.35-4.93,11.02-7.69,17.98-7.69,16.53,0,27.7,12.33,27.7,36.98s-11.75,39.01-28.28,39.01c-7.4,0-14.21-3.05-18.27-8.41Zm15.37-3.77c8.56,0,15.81-7.83,15.81-26.39s-7.54-25.09-16.1-25.09c-5.8,0-10.59,2.9-14.21,6.67v37.85c3.77,3.92,8.7,6.96,14.5,6.96Z"
  />
  <path d="m349.59,1.74h15.08v101.5h-15.08V1.74Z" fill="#fff" />
  <path
    fill="#fff"
    d="m378.01,68.01c0-22.91,11.46-39.01,31.47-39.01,14.07,0,28.85,8.41,28.85,34.51v6.81h-45.53v.87c0,14.07,7.4,21.9,17.25,21.9,6.38,0,11.75-2.61,15.37-9.14l.87-1.6,11.89,5.08-.72,1.45c-5.37,10.73-14.94,16.1-27.84,16.1-18.27,0-31.61-12.91-31.61-36.98Zm46.11-7.69v-1.02c0-13.2-6.96-18.13-14.64-18.13s-15.23,5.8-16.53,19.14h31.18Z"
  />
  <path
    class="cls-1"
    d="m478.35,1.74h21.9l28.71,101.5h-16.1l-7.11-26.68h-33.64l-7.11,26.68h-15.23L478.35,1.74Zm23.93,62.35l-13.34-49.88-13.34,49.88h26.68Z"
  />
  <path
    class="cls-1"
    d="m525.18,30.74h15.08l11.89,51.77,13.2-51.77h14.21l12.91,51.77,12.33-51.77h13.78l-18.71,72.5h-14.94l-13.05-51.62-13.2,51.62h-14.79l-18.71-72.5Z"
  />
  <path
    class="cls-1"
    d="m663.08,96.28c-4.5,4.78-10.44,8.56-20.01,8.7-13.63,0-22.48-9.14-22.48-20.88,0-12.76,10.58-19,19.87-21.61l22.48-6.38v-2.61c0-8.12-5.08-12.18-13.05-12.18-7.39,0-13.34,4.64-15.95,9.86l-.43.87-11.46-6.09.73-1.45c3.19-6.53,12.04-15.52,28.42-15.52s26.83,8.27,26.83,23.2v38.14c0,3.62.15,8.41.87,11.6l.29,1.31h-15.08l-.15-.73c-.43-2.03-.72-4.06-.87-6.23Zm-16.09-2.76c6.67,0,12.62-3.92,15.95-8.12v-18.27l-15.66,4.79c-5.95,1.88-11.17,4.93-11.17,11.17s4.21,10.44,10.88,10.44Z"
  />
  <path
    class="cls-1"
    d="m692.66,30.74h14.07v13.63c9.57-11.17,18.13-14.5,25.38-14.65v14.07c-10.15,0-18.13,5.66-24.36,11.31v48.14h-15.08V30.74Z"
  />
  <path
    class="cls-1"
    d="m733.69,68.01c0-22.91,11.46-39.01,31.47-39.01,14.07,0,28.86,8.41,28.86,34.51v6.81h-45.53v.87c0,14.07,7.4,21.9,17.26,21.9,6.38,0,11.75-2.61,15.37-9.14l.87-1.6,11.89,5.08-.72,1.45c-5.37,10.73-14.94,16.1-27.84,16.1-18.27,0-31.61-12.91-31.61-36.98Zm46.11-7.69v-1.02c0-13.2-6.96-18.13-14.65-18.13s-15.23,5.8-16.53,19.14h31.18Z"
  />
</svg>
