<svg width="597" height="540" fill="none" xmlns="http://www.w3.org/2000/svg"><path d="M597 90.5v104.708l-45 14.959-46.2-73.595c-3.9-6.283-13.8-3.59-13.8 3.889v107.101c0 29.319-11.7 55.645-30 75.69V539.25h-75v-179.5h-7.5c-6.3 0-12.6-.898-18.6-1.795l-133.2-22.138-33.6 60.132 28.8 143.301H147l-30-142.104c-.9-8.975 0-17.95 4.8-25.728l30.6-54.15a97.974 97.974 0 01-36.214-34.773A97.623 97.623 0 01102 234.399c-1.2 4.488-1.8 11.069-.9 20.643.9 13.163 4.2 32.609 2.1 54.149-1.2 21.54-11.1 43.678-23.7 58.337-12.9 14.66-27 24.831-42 32.61l-21-20.942c5.7-14.061 11.4-26.626 12.6-38.294 1.8-11.069-.3-20.044-3.6-28.121L9.6 278.975C3.3 263.717-4.5 241.579-3 215.552c.9-25.43 15-58.637 41.7-76.886 27-18.249 56.1-20.643 79.8-15.856 15 2.992 30.3 10.172 43.5 20.343 11.1-5.085 24-7.778 37.5-7.778H372v-14.958C372 54.301 425.7.75 492 .75h105l-26.7 40.088C586.5 51.608 597 69.858 597 90.5z" fill="#F6FCEF"/></svg>