<svg width="203" height="816" fill="none" xmlns="http://www.w3.org/2000/svg"><path d="M187.204 771.022c0 11.168-2.137 20.041-6.41 26.62-4.273 6.578-10.454 11.321-18.543 14.227-8.089 2.754-17.704 4.131-28.845 4.131v-24.554c5.494 0 10.912-.459 16.254-1.377 5.189-.918 9.538-2.83 13.049-5.737 3.357-3.06 5.036-7.65 5.036-13.769 0-6.731-1.908-11.551-5.723-14.457-3.968-2.907-9.234-4.743-15.796-5.508-6.715-.765-14.27-1.147-22.664-1.147-8.394 0-15.491.459-21.29 1.377-5.953.918-10.455 2.83-13.507 5.737-3.205 2.906-4.808 7.496-4.808 13.768 0 5.049 1.603 9.333 4.808 12.851 3.052 3.519 6.562 6.12 10.53 7.803v20.882H-.058v-80.088h24.495v57.829l51.28 1.606c-3.205-3.06-5.723-6.808-7.555-11.244-1.831-4.59-2.747-9.791-2.747-15.605 0-10.097 2.366-17.976 7.097-23.636 4.731-5.814 11.217-9.868 19.459-12.163 8.241-2.448 17.704-3.672 28.387-3.672 9.462 0 18.314.689 26.556 2.066 8.088 1.377 15.185 3.824 21.29 7.343 5.952 3.366 10.607 8.032 13.965 13.998 3.357 5.967 5.036 13.54 5.036 22.719zM203 660.967h-15.796c-.305 15.757-5.418 27.461-15.338 35.11-9.92 7.649-22.74 11.856-38.46 12.621l-6.181-22.948c6.562-.459 12.896-1.453 19.001-2.983 6.105-1.683 11.141-4.36 15.109-8.032 3.816-3.671 5.723-8.796 5.723-15.375 0-6.731-1.831-11.78-5.494-15.145-3.815-3.519-9.233-5.278-16.254-5.278-8.394 0-15.109 1.912-20.146 5.737-5.189 3.824-10.378 8.643-15.567 14.457L82.126 690.34c-3.663 3.978-7.478 7.343-11.447 10.097-3.968 2.601-8.317 4.59-13.048 5.967-4.884 1.224-10.379 1.835-16.483 1.835-13.278 0-23.58-3.748-30.906-11.244-7.478-7.496-11.446-17.67-11.904-30.521H-17v-8.032h15.338c.458-6.425 1.832-12.009 4.12-16.752 2.138-4.895 5.19-8.949 9.158-12.162 3.968-3.366 8.852-5.967 14.651-7.802 5.647-1.989 12.286-3.29 19.917-3.902l5.952 22.03c-6.104.459-11.751 1.377-16.94 2.754-5.342 1.377-9.615 3.825-12.82 7.344-3.205 3.365-4.579 8.261-4.121 14.686.458 6.426 2.29 11.474 5.494 15.146 3.205 3.519 8.165 5.278 14.88 5.278 5.648 0 10.302-.918 13.965-2.754 3.51-1.989 7.25-5.125 11.218-9.408l27.471-31.439c4.12-4.59 8.776-8.873 13.965-12.851 5.036-4.131 10.683-7.42 16.94-9.868 6.258-2.6 13.278-3.901 21.062-3.901 8.394 0 15.796 1.607 22.206 4.819 6.257 3.213 11.217 7.726 14.88 13.54 3.663 5.66 5.876 12.315 6.639 19.964H203v7.803zm-17.627-120.874H53.052v-22.718h12.591c-5.036-4.437-8.776-9.332-11.217-14.687-2.442-5.354-3.663-10.862-3.663-16.522 0-4.896 1.22-9.256 3.663-13.081 2.441-3.977 6.791-6.808 13.049-8.49-5.8-4.743-9.997-9.868-12.591-15.376-2.748-5.66-4.121-11.55-4.121-17.67 0-4.283 1.068-8.184 3.205-11.703 1.984-3.519 5.265-6.349 9.844-8.491 4.426-2.142 10.301-3.212 17.627-3.212h103.934v22.489H83.042c-6.41 0-10.684 1.07-12.82 3.212-2.29 1.989-3.434 4.743-3.434 8.262 0 3.365.992 6.884 2.976 10.556 1.831 3.671 4.426 7.037 7.783 10.097h107.826v22.489H83.042c-6.41 0-10.684 1.071-12.82 3.212-2.29 1.989-3.434 4.743-3.434 8.262 0 3.365.992 6.884 2.976 10.556 1.831 3.519 4.426 6.884 7.783 10.097h107.826v22.718zm0-157.581H53.052v-24.554h132.321v24.554zm-152.009 0H7.724v-24.554h25.64v24.554zm152.009-53.128H-.059V304.83h185.432v24.554zm0-52.439H-.059V252.39h185.432v24.555zm0-51.752H53.052v-24.554h132.321v24.554zm-152.009 0H7.724v-24.554h25.64v24.554zm153.84-87.32c0 9.791-1.984 17.517-5.952 23.177-3.968 5.661-9.615 9.715-16.941 12.162-7.326 2.295-15.949 3.443-25.869 3.443h-38.46c-9.92 0-18.543-1.148-25.869-3.443-7.325-2.447-12.972-6.501-16.94-12.162-3.968-5.66-5.952-13.386-5.952-23.177 0-9.792 1.984-17.441 5.952-22.948 3.968-5.661 9.615-9.639 16.94-11.933 7.326-2.448 15.95-3.672 25.87-3.672h38.459c9.92 0 18.543 1.224 25.869 3.672 7.326 2.294 12.973 6.272 16.941 11.933 3.968 5.507 5.952 13.156 5.952 22.948zm-18.085 0c0-4.743-1.374-8.032-4.121-9.868-2.747-1.989-6.334-3.136-10.76-3.442a142.262 142.262 0 00-14.193-.689H98.609c-5.037 0-9.768.23-14.194.689-4.426.306-8.012 1.453-10.76 3.442-2.9 1.836-4.35 5.125-4.35 9.868 0 4.742 1.45 8.108 4.35 10.097 2.748 1.988 6.334 3.212 10.76 3.671 4.426.306 9.157.459 14.194.459h41.436c4.884 0 9.615-.153 14.193-.459 4.426-.459 8.013-1.683 10.76-3.671 2.747-1.989 4.121-5.355 4.121-10.097zm16.254-60.997H53.052V52.32h13.049a71.576 71.576 0 01-10.53-14.686c-2.9-5.355-4.35-11.245-4.35-17.67 0-5.355 1.373-9.409 4.12-12.163 2.748-2.906 6.181-4.895 10.302-5.966A43.998 43.998 0 0178.234 0h107.139v24.554H85.331c-4.731 0-8.394.689-10.989 2.066-2.594 1.377-3.891 4.207-3.891 8.49 0 2.754.839 5.66 2.518 8.72 1.526 2.907 3.434 5.738 5.723 8.491h106.681v24.555z" fill="#750107"/></svg>